<?xml version="1.0" encoding="utf-8"?>
<!-- Generator: Adobe Illustrator 24.0.1, SVG Export Plug-In . SVG Version: 6.00 Build 0)  -->
<svg version="1.1" id="_x2018_лой_x5F_1" xmlns="http://www.w3.org/2000/svg" xmlns:xlink="http://www.w3.org/1999/xlink"
	 x="0px" y="0px" viewBox="0 0 1756.3 1104.7" style="enable-background:new 0 0 1756.3 1104.7;" xml:space="preserve">
<style type="text/css">
	.st0{fill:#F9DDBF;}
	.st1{fill:#EAC3A2;}
	.st2{fill:#273F76;}
	.st3{fill:#ECF3FE;}
	.st4{fill:#FFFFFF;}
	.st5{fill:#D67330;}
	.st6{fill:#9FC3F7;}
	.st7{fill:#233862;}
	.st8{fill:#E8945B;}
	.st9{fill:#FFB27D;}
	.st10{fill:#ED7D2B;}
	.st11{fill:#F99746;}
	.st12{fill:#163560;}
	.st13{fill:#2B478B;}
	.st14{opacity:0.5;fill:#2B478B;}
</style>
<g>
	<g>
		<g>
			<path class="st0" d="M1182.3,868.9l35.4,77.2v0l68.1,148.8c1.2,2.5,3.7,4.1,6.4,4.1h0.6c5,0,8.6-4.8,7.3-9.6L1246,896l-7.9-28.2
				L1182.3,868.9z"/>
		</g>
		<path class="st1" d="M1217.7,946.2C1214.3,911,1246,896,1246,896l-7.9-28.2l-55.8,1.2L1217.7,946.2z"/>
		<g>
			<path class="st0" d="M1547.6,868.9l35.4,77.2v0l68.1,148.8c1.2,2.5,3.7,4.1,6.4,4.1h0.6c5,0,8.6-4.8,7.3-9.6L1611.3,896
				l-7.9-28.2L1547.6,868.9z"/>
		</g>
		<path class="st1" d="M1583,946.2c-3.4-35.1,28.3-50.2,28.3-50.2l-7.9-28.2l-55.8,1.2L1583,946.2z"/>
		<path class="st0" d="M1665.6,731.4v129c0,8-6.6,14.6-14.6,14.6H37.5c-8,0-14.6-6.6-14.6-14.6v-129c0-8,6.6-14.6,14.6-14.6H1651
			C1659.1,716.8,1665.6,723.4,1665.6,731.4z"/>
		<path class="st1" d="M95.9,867.7L88,896l-54.1,193.5c-1.3,4.8,2.3,9.6,7.3,9.6h0.6c2.8,0,5.3-1.6,6.4-4.1l68.1-148.8v0l35.4-77.2
			L95.9,867.7z"/>
		<path class="st1" d="M383.7,867.7l-7.9,28.2l-54.1,193.5c-1.3,4.8,2.3,9.6,7.3,9.6h0.6c2.8,0,5.3-1.6,6.4-4.1l68.1-148.8v0
			l35.4-77.2L383.7,867.7z"/>
		<path class="st1" d="M621.8,253.8H17.7c-9.2,0-16.8,7.5-16.8,16.8v587.7c0,9.2,7.5,16.8,16.8,16.8h604.1c9.2,0,16.8-7.5,16.8-16.8
			V270.6C638.6,261.4,631.1,253.8,621.8,253.8z"/>
		<path class="st0" d="M660.5,270.3v498.9c0,9.1-6.6,16.5-14.6,16.5H37.5c-8,0-14.6-7.4-14.6-16.5V270.3c0-9.1,6.6-16.5,14.6-16.5
			h608.4C653.9,253.8,660.5,261.2,660.5,270.3z"/>
		<path class="st1" d="M138.8,759c0,0-112-8.9-115.9-11.7V644.6c23.6-22.3,70-47.7,70-47.7L138.8,759z"/>
		<path class="st1" d="M170.8,373.8c0-5.9,4.1-10.7,9.2-10.7c5.1,0,9.2,4.8,9.2,10.7s-4.1,10.7-9.2,10.7
			C174.9,384.5,170.8,379.7,170.8,373.8z"/>
		<path class="st1" d="M538.8,373.8c0-5.9,4.1-10.7,9.2-10.7c5.1,0,9.2,4.8,9.2,10.7s-4.1,10.7-9.2,10.7
			C542.9,384.5,538.8,379.7,538.8,373.8z"/>
		<path class="st2" d="M170.8,576.1c0-5.9,4.1-10.7,9.2-10.7c5.1,0,9.2,4.8,9.2,10.7c0,5.9-4.1,10.7-9.2,10.7
			C174.9,586.9,170.8,582.1,170.8,576.1z"/>
		<path class="st1" d="M538.8,576.1c0-5.9,4.1-10.7,9.2-10.7c5.1,0,9.2,4.8,9.2,10.7c0,5.9-4.1,10.7-9.2,10.7
			C542.9,586.9,538.8,582.1,538.8,576.1z"/>
		<path class="st1" d="M1126.6,731.4v129c0,8-6.7,14.6-14.8,14.6H22c-8.1,0-14.8-6.6-14.8-14.6v-129c0-8,6.7-14.6,14.8-14.6h1089.8
			C1119.9,716.8,1126.6,723.4,1126.6,731.4z"/>
		<g>
			<path class="st3" d="M378,522c0,0-41,119.1-19.5,195.9h70.8C429.3,717.9,455.4,577.8,378,522z"/>
			<path class="st4" d="M378,522c0,0,142.5-19.9,221.1,0l59,195.9H429.3C429.3,717.9,455.4,600.6,378,522z"/>
		</g>
		<path class="st5" d="M1164.5,711.9c-1.4-0.8-2.2-1.2-2.2-1.2C1163.3,711,1164,711.4,1164.5,711.9z"/>
		<g>
			<path class="st3" d="M100.3,522c0,0-41,119.1-19.5,195.9h70.8C151.7,717.9,177.8,577.8,100.3,522z"/>
			<path class="st4" d="M100.3,522c0,0,142.5-19.9,221.1,0l59,195.9H151.7C151.7,717.9,177.8,600.6,100.3,522z"/>
		</g>
		<path class="st6" d="M1579.4,718.5c0,0-226.4-103-267.1-103.3c-40.8-0.3-225.9,50.7-268.3,42.2c-42.5-8.5-276.8-81.1-309.1-81.3
			c-32.3-0.2-533.4,53.2-608.2,141.7c-13.7,16.3,218.8,324.2,355.4,306.8c90.8-11.6,293-309.8,318.3-313.9
			c25.3-4.1,511.8,6.1,511.8,6.1C1421.5,716.8,1579.4,718.5,1579.4,718.5z"/>
		<g>
			<path class="st7" d="M838.8,4c0,0-39.1,2.8-54.1,40.6c-14.9,37.7-38,65.7-25.9,82.5c12.1,16.9,26.9,27,23.3,34.8
				c-3.6,7.8-27.4,7.9-45.9,27.1c-18.5,19.2-52.4,74.7,1,85.5c40.8,8.2,10.5,59.6,37.2,79.6c34.3,25.6,152,50.9,190.6,20.7
				c38.5-30.3,24.7-91.2,12.2-112.1c-12.5-21,27.9-50.8,34-61.2c24.9-42.3-55.1-47.5-43.4-71.3c11.7-23.8,23.8-46.8-14.8-68.7
				C934.2,50.7,923.1-11.7,838.8,4z"/>
			<path class="st8" d="M1259.5,645c-6.9,73.5-56.3,74.1-242,72c-60.1-0.7-116.8-1.6-165.9-2.6c-102.6-2.2-57.6-32.4-47.6-30.2
				c3.5,0.8,26.6,8,56.1-0.9c53.9-16.4,131.7-54.3,166.9-52.4c54.4,2.8,125.1-1.6,125.1-1.6s-192-24.7-198.9-57.5
				c-6.9-32.7-110.1-84.6-87.7-88.8c22.4-4.1,104.5,7.1,104.5,7.1s45.4,22.5,99.7,39.5C1155.6,556.5,1264.7,589.1,1259.5,645z"/>
			<path class="st9" d="M909.3,247c-16.5,7.7-49,6.6-63.2-4.9c-7.4-5.9-10.7-8.7-6.2-14.2c7.5-5.2,15.5-33.2,7.7-77.7l3.6,0.1
				l59.9,1.5c0,0,1.8,18.5,4.7,35.6c2.4,14.3,5.7,28.7,9.3,29.9C934.4,221.3,944.4,230.8,909.3,247z"/>
			<path class="st8" d="M911,151.8c0,0,1.8,18.4,4.7,35.6c-32.6,4.7-54.8-21.9-64.6-37.1L911,151.8z"/>
			<g>
				<path class="st9" d="M929.4,157.7c0,0-72.7,27.8-89.3-17.7c-16.6-45.5-37.2-72.6,8.5-92.3c45.7-19.7,61.1-5.6,70.3,8.2
					C928.2,69.8,947.8,149.3,929.4,157.7z"/>
				<path class="st7" d="M881.5,34.4c0,0-0.6,60.7-28.4,79.8c-27.8,19.1-44.2,15.7-44.2,15.7s16.8-27.3,9.8-61.7
					C818.7,68.2,857.2,14.5,881.5,34.4z"/>
				<path class="st7" d="M878.1,40.6c0,0,19.3,6.5,27.1,16.8c7.9,10.3,19.3,19.7,24.8,30.2c0,0,1.9-41.8-22.5-56.2
					C881.7,16.1,878.1,40.6,878.1,40.6z"/>
				<path class="st7" d="M881.5,41.4c0,0,6.1,61.1-26.2,93.1c0,0,26.3-48.5,16.1-86.6S881.5,41.4,881.5,41.4z"/>
			</g>
			<path class="st4" d="M904.1,138.4c0,0,24-10.4,24.5-11.2c0.6-0.8,0.1,4.6,1.3,7.2c1.2,2.7-7.4,6.9-11.6,8.9
				C914.1,145.2,907.8,145,904.1,138.4z"/>
			<path class="st9" d="M911.9,212c0,0,32.3,6.4,77.3-31.7c17.7-15,92.9-63.4,115.3-78.7C1126.9,86.2,1199,57,1199,57l13.6,13.9
				c0,0-82.7,70.4-90.5,73.5c-7.8,3.1-83.5,73.3-86.4,80c-2.8,6.6-33.1,33.5-30.2,67.2C1007.2,311.2,911.9,212,911.9,212z"/>
			<path class="st9" d="M845.4,217.7c0,0-25.5,2.6-45.6-19.3c-15.7-17-92.9-63.4-115.3-78.7c-22.4-15.3-115.1-47.4-115.1-47.4
				l-8.2,12.9c0,0,97.9,74.2,105.7,77.3c7.8,3.1,66,58.1,75.5,74.9c9,15.9,35.7,54.6,45.6,71.8C803.3,335.9,845.4,217.7,845.4,217.7
				z"/>
			<path class="st9" d="M959.8,212c0,0,48.4,76.9,51.2,93.9c2.8,17.1-20.9,96.8-21.8,108.2c-0.9,11.4-19.9,75.9-19.9,75.9H826
				c0,0-7.3-103.7-17.9-131.1c-10.6-27.4-34.3-83.9-34.3-83.9l76.5-50L959.8,212z"/>
			<path class="st9" d="M1377.4,994.6l-37.5,6.6c-3.5-6.7-7.2-13.3-11.1-19.9c-32-53.6-77.4-104.1-107.3-142.1
				c-88.5-112.4,27.6-152.2-162.4-148.7c-190,3.4-263.8-28.9-264.6-84.9C794.2,584,826.8,490,826.8,490h143.3
				c0,0-14.5,10.8-8.5,24.1c5.9,13.3,204.5,70.4,232,78.8c47.9,14.7,53.3,54.4,89.7,142.2c18.9,45.7,63.6,172.1,83.8,229.9
				C1373.4,983.2,1377.4,994.6,1377.4,994.6z"/>
			<path class="st9" d="M581,77.1c0,0-22.4-15.4-34.4-17.6c-12-2.2-24.6-4.4-22.5,0c2.2,4.4,16.4,4.6,15.3,9.7
				c-1.1,5.1-45.5-2.4-41.6,7.9c3.8,10.3,31.5,18,41.5,18c10,0,38.4-5.2,38.4-5.2L581,77.1z"/>
			<path class="st9" d="M1197.5,58c0,0,22.4-15.4,34.4-17.6c12-2.2,24.6-4.4,22.5,0c-2.2,4.4-16.4,4.6-15.3,9.7
				c1.1,5.1,45.5-2.4,41.6,7.9c-3.8,10.3-31.5,18-41.5,18c-10,0-38.4-5.2-38.4-5.2L1197.5,58z"/>
			<path class="st4" d="M834.7,217c0,0,42.1,89.8-36.9,114l22.5,89.9c0,0,44.5,34.7,168.3,1c0,0,27.3-83.3,22.5-116.1
				c-4.5-30.5-74-96.1-74-96.1l-8.9,1c0,0,34.2,46.7,32.3,60c-1.9,13.3-52.1,24.9-84.7,4.5c-9.4-5.9-31.8-57.5-31.8-57.5L834.7,217z
				"/>
			<path class="st10" d="M971.8,487.7l85.1,37.6c0,0-7.1,19.5-44.8,22.3c-28.3,2.1-69.9-32.1-72.8-49L971.8,487.7z"/>
			<path class="st10" d="M826.8,490c0,0-2.6-3.1-0.6-8.1c0,0,65.4,27.6,146,1c0,0,2,2.7-2,7C970.1,490,901.8,518.9,826.8,490z"/>
			<path class="st4" d="M1431.3,1092.9c-5,7.8-39.9,9.3-45.5,0c-5.7-9.3-10.7-29.2-24.9-39.1c-14.2-10-31.3-14.9-24.9-30.6
				c6.4-15.7,4-21.9,4-21.9c-3.5-6.7-7.2-13.3-11.1-19.9c11.6-3.3,26.5-8.5,38.3-16.3c6.4,18.1,10.3,29.5,10.3,29.5
				s25.4,42.3,30.1,62.2C1412.3,1076.7,1436.3,1085,1431.3,1092.9z"/>
			<path class="st4" d="M901.2,715.3c-102.6-2.2-177-6.3-175.7-10.8c1.9-6.6,7.6-19,40.9-21.8c33.3-2.8,39-19.9,56.8-20.6
				c17.8-0.7,15.7,19.9,25.6,22.1c3.5,0.8,25.6-6,55.2-15C904.8,682.1,908.6,699.8,901.2,715.3z"/>
			<path class="st11" d="M826.8,490c8.5-1.6,46.3,25.9,135.2,2.4c0,0,27.5,24.8,44.1,35.4c17.7,11.2,31.8,17.5,31.8,17.5
				s9.4,110.3-159.5,139.8c0,0-90.1-8.7-92-80.8C784.5,530.6,826.8,490,826.8,490z"/>
		</g>
		<path class="st6" d="M1367.2,716.8c0,0,123.9,57.7,136.4,52.1c12.5-5.7,75.8-50.3,75.8-50.3l-104.2-15.3L1367.2,716.8z"/>
		<path class="st6" d="M482.1,1024.6c0,0-9.3,14.5,0,32.2c0,0,12.3,0,21.8-8.7C503.9,1048.1,500.4,1025.6,482.1,1024.6z"/>
		<path class="st6" d="M1501.3,767c0,0-5.7,8.7-1.9,23c0,0,12.8,1.9,19.2-2.6C1518.7,787.4,1512.7,768.1,1501.3,767z"/>
	</g>
	<path class="st10" d="M614.2,1040.7c0,0-66.8,20.2-70.1,57.3h208.5c0,0-1.6-9.6-7.6-9.6c-6,0-89.5-1.1-89.5-1.1
		S638.6,1040.2,614.2,1040.7z"/>
	<path class="st11" d="M872.5,1040.7c0,0-66.8,20.2-70.1,57.3H1011c0,0-1.6-9.6-7.6-9.6c-6,0-89.5-1.1-89.5-1.1
		S897,1040.2,872.5,1040.7z"/>
	<g>
		<path class="st12" d="M1524.4,1008.4c0,0,17.4,74.7,8.1,79.7c0,0-8.1-2.7-10.9,4.1c-0.7,1.8-1.2,3.5-0.8,5.9h21.8
			c0,0,3.5-10,8.2-14.5c2.6-2.5,20.7-69.4,20.7-69.4L1524.4,1008.4z"/>
		<path class="st13" d="M1499.1,1008.4c0,0,17.4,74.7,8.1,79.7c0,0-8.1-2.7-10.9,4.1c-0.7,1.8-0.2,3.5,0.3,5.9h19.6
			c0,0,4.6-10,9.3-14.5c2.6-2.5,20.7-69.4,20.7-69.4L1499.1,1008.4z"/>
		<g>
			<path class="st7" d="M1499.3,891.1c0,0,20.6,25.4,15,35.9l-25.4-12C1489,914.9,1486.9,906.5,1499.3,891.1z"/>
			<path class="st13" d="M1525.4,953.4c6.5-17.8-4.5-37.5-22.9-41.8c-8.5-2-19.7-3-28.2,10.4c-1.9,3-8.8,6.8-12.4,7.2
				c-2,0.2-4.1,10.9-3.9,12.2c2,19.4,12,23.9,27.8,31.4C1502.4,980.7,1518.9,971.1,1525.4,953.4z"/>
			<path class="st13" d="M1494.6,917.6l25.4,12c0.9-1.7,1.1-3.8,0.8-6.1c-1.4-11.9-15.9-29.8-15.9-29.8
				C1492.5,909.1,1494.6,917.6,1494.6,917.6z"/>
			<path class="st13" d="M1520.8,923.5c0,0,10.1,8.3,10.9,21.2c0,0-1-2.4-2.2-3.3c0,0,2.9,7.7-0.6,12.2c0,0,0-1.7-0.7-3.2
				c0,0,0.8,6.3-6,11.9l0.2-2.2c0,0-2.3,3.5-3,5.7c-0.6,2.2-4.3,1.2-4.4,0.8c-0.1-0.4,3.3-25.6,3.3-25.6l-3.9-14L1520.8,923.5z"/>
			<path class="st12" d="M1461.2,929.4c0,0,1-1.1,2.4-0.8c0,0,0.8,4.9-3.8,6.4C1459.8,935,1460.2,930.4,1461.2,929.4z"/>
			<g>
				<path class="st12" d="M1472.5,938.2c0.2,0,19.5,2.4,35.7,14l0,0c-16.5-11.8-35.5-14.6-35.7-14.6L1472.5,938.2z"/>
			</g>
			<g>
				<path class="st12" d="M1471.2,939.8c0.2,0.1,21.8,8.3,37.3,26.2l0,0c-15.7-18.3-36.8-26.8-37-26.9L1471.2,939.8z"/>
			</g>
			<g>
				<path class="st12" d="M1469.6,941.8c0.2,0.1,16.5,10.7,26.1,28.2l0,0c-9.7-17.8-25.6-28.6-25.7-28.7L1469.6,941.8z"/>
			</g>
			<path class="st14" d="M1504.9,893.7c0,0,6.3,22,9.5,25.5c3.2,3.6,6.4,4.3,6.4,4.3C1519.3,911.6,1504.9,893.7,1504.9,893.7z"/>
		</g>
		<path class="st12" d="M1694.9,1001.9c8.6-21.7-0.2-68.4-42.5-50.2c-9,2.7-19.8,9.2-32.7,21.1c0,0-18.6,43.7,54.6,72.7
			c0,0,7.3,3.1,8.3,9.8c1,6.7,2.2,36.8-0.3,37.7c-2.5,0.9-6.2-2.5-8.8,1.3c-2.7,3.8-1.7,10.1-1.7,10.1h26.6c0,0,12.7-67.6,12-72.9
			C1709.7,1026,1690.4,1013.3,1694.9,1001.9z"/>
		<path class="st13" d="M1512.8,1025.1c69.8,45.8,145.3,6,145.3,6l8.3-82.8c-20-0.1-24.9,3.3-37.1,7.1c-6,1.9-11.1,4.2-15.6,5.4
			c-31,8.4-56.5,5.2-67.3,5.2c-16.4,0-33.7-26.9-33.7-26.9l-22.4,29.4C1490.4,968.5,1491.5,1011.2,1512.8,1025.1z"/>
		<path class="st13" d="M1689.4,958.9l4.3,18.4c0,0,78.4-24.8,58.3-61.3c-5.7-10.4-14.4-27.8-3-34.9c9.7-6.1,6-18.7,0.4-21.7
			c-11.8-6.4-23.8,1.7-29.4,9.5c-10.7,15,3.5,38.3,3.5,38.3C1740.9,944.7,1689.4,958.9,1689.4,958.9z"/>
		<path class="st13" d="M1687.2,1011.4c8.4-5.9,25.2-67.9-20.7-65.3c-14.2,1.6-26.9,4.7-43.1,11.4c0,0-29.3,35.4,29.5,87.8
			c0,0,5.7,5.4,4.4,12.1c-1.3,6.6-10.6,35.3-13.2,35.3s-11.5-3.8-15.3-1.2c-3.8,2.6,1.5,12.9,1.5,12.9h5.4h16h5.4
			c0,0,33.2-54.7,34.4-60S1677.2,1018.4,1687.2,1011.4z"/>
	</g>
</g>
</svg>
